<svg id="Layer_1" data-name="Layer 1" xmlns="http://www.w3.org/2000/svg" xmlns:xlink="http://www.w3.org/1999/xlink" viewBox="0 0 251.8 263.57"><defs><style>.cls-1{fill:url(#radial-gradient);}.cls-2{fill:none;stroke:#fff;stroke-miterlimit:10;stroke-width:8px;}.cls-3{fill:#fff;}.cls-4{fill:#a0f;}</style><radialGradient id="radial-gradient" cx="215.01" cy="134.21" r="91.69" gradientUnits="userSpaceOnUse"><stop offset="0" stop-color="#ed2f3e"/><stop offset="0.01" stop-color="#ee3947"/><stop offset="0.06" stop-color="#f1626e"/><stop offset="0.11" stop-color="#f58891"/><stop offset="0.16" stop-color="#f8a8af"/><stop offset="0.22" stop-color="#fac4c8"/><stop offset="0.29" stop-color="#fcdadc"/><stop offset="0.37" stop-color="#fdebec"/><stop offset="0.47" stop-color="#fef6f7"/><stop offset="0.61" stop-color="#fffdfd"/><stop offset="1" stop-color="#fff"/></radialGradient></defs><path class="cls-1" d="M141.25,205.77a90.58,90.58,0,0,0,21,12,90.36,90.36,0,0,0,71.36-1.6,93,93,0,0,0,20.77-13.15c1.53-1.38,3.14-2.68,4.62-4.12l4.32-4.43c1.35-1.56,2.65-3.16,4-4.74a28.23,28.23,0,0,0,1.87-2.48l1.79-2.53a93.62,93.62,0,0,0,11.15-22.13l1.85-5.95,1.36-6.09a24.63,24.63,0,0,0,.53-3.07l.43-3.1c.12-1,.34-2.06.39-3.1l.17-3.12a91.86,91.86,0,0,0-10.41-48.52,94.31,94.31,0,0,0-45.62-42.27,99.42,99.42,0,0,0-12-4.26,93.13,93.13,0,0,0-12.51-2.57c-2.1-.35-4.24-.47-6.36-.68-1.06-.08-2.13-.09-3.2-.15s-2.13-.1-3.2-.07a94.3,94.3,0,0,0-49,13.51,95.06,95.06,0,0,1,49-15c1.09-.06,2.17,0,3.26,0s2.17,0,3.25.06c2.17.15,4.34.2,6.5.5A95.21,95.21,0,0,1,219.34,41a100.69,100.69,0,0,1,12.44,4,97.19,97.19,0,0,1,61,93.46l-.09,3.33c0,1.12-.21,2.21-.31,3.32l-.36,3.32a30.83,30.83,0,0,1-.47,3.3l-1.28,6.56-1.79,6.44a101.51,101.51,0,0,1-11.32,24.2l-1.86,2.79a33,33,0,0,1-1.95,2.73c-1.39,1.76-2.75,3.54-4.17,5.27l-4.55,5c-1.56,1.61-3.26,3.08-4.89,4.62a102.07,102.07,0,0,1-22.32,15,100.62,100.62,0,0,1-79.29,4,102.61,102.61,0,0,1-24.08-12.93Z" transform="translate(-51.76 -38.15)"/><path class="cls-2" d="M223.13,225.19A84.08,84.08,0,0,1,56,219.51c-.13-1.93-.21-3.9-.21-5.87a84.09,84.09,0,0,1,121.12-75.5q2.66,1.29,5.21,2.78" transform="translate(-51.76 -38.15)"/><path class="cls-2" d="M179.74,135.89c-.15.87-.3,1.74-.47,2.6-6.33,34.93-22.11,61.69-39.22,72.44a106.4,106.4,0,0,1-21.7,9.94,95.78,95.78,0,0,1-60-1" transform="translate(-51.76 -38.15)"/><path class="cls-3" d="M116,126.91h7.27a0,0,0,0,1,0,0v30.84a5.91,5.91,0,0,1-5.91,5.91H116a0,0,0,0,1,0,0V126.91A0,0,0,0,1,116,126.91Z"/><line class="cls-4" x1="48.48" y1="112.47" x2="76.72" y2="166.36"/><path class="cls-4" d="M100.24,150.63a53.61,53.61,0,0,1,11.58,11.1,81.08,81.08,0,0,1,8.3,12.82A80.69,80.69,0,0,1,126,188.67a53.75,53.75,0,0,1,2.53,15.85,53.72,53.72,0,0,1-11.6-11.1,80.59,80.59,0,0,1-8.28-12.83,81.71,81.71,0,0,1-5.82-14.12A54.06,54.06,0,0,1,100.24,150.63Z" transform="translate(-51.76 -38.15)"/><circle class="cls-4" cx="238.2" cy="245.97" r="13.6"/></svg>